<?xml version="1.0"?>
<svg xmlns="http://www.w3.org/2000/svg" xmlns:xlink="http://www.w3.org/1999/xlink" id="Layer_2" data-name="Layer 2" viewBox="0 0 128 128" width="512" height="512"><defs><linearGradient id="linear-gradient" x1="109.355" y1="109.355" x2="18.645" y2="18.645" gradientUnits="userSpaceOnUse"><stop offset="0" stop-color="#06daf7"/><stop offset="1" stop-color="#ff6ca8"/></linearGradient></defs><title>AUTOMATION</title><path d="M111.612,79.36a1.751,1.751,0,0,1,1.045,2.244c-.411,1.128-.869,2.257-1.36,3.355a1.75,1.75,0,0,1-3.2-1.428c.458-1.024.884-2.076,1.267-3.127A1.754,1.754,0,0,1,111.612,79.36ZM126.25,54.083H114.86a51.9,51.9,0,0,0-7.853-19.065l8.122-8.124a1.749,1.749,0,0,0,0-2.475L103.581,12.87a1.749,1.749,0,0,0-2.475,0l-8.095,8.095a51.9,51.9,0,0,0-19.095-7.938V1.75A1.75,1.75,0,0,0,72.167,0H55.833a1.75,1.75,0,0,0-1.75,1.75V13.026a51.894,51.894,0,0,0-19.094,7.938l-8.1-8.095a1.749,1.749,0,0,0-2.475,0L12.87,24.419a1.749,1.749,0,0,0,0,2.475l8.123,8.124a51.894,51.894,0,0,0-7.854,19.065H1.75A1.75,1.75,0,0,0,0,55.833V72.167a1.75,1.75,0,0,0,1.75,1.75H13.2a51.935,51.935,0,0,0,7.909,18.952l-8.237,8.237a1.749,1.749,0,0,0,0,2.475L24.419,115.13a1.749,1.749,0,0,0,2.475,0l8.265-8.265a51.934,51.934,0,0,0,18.924,7.824V126.25a1.75,1.75,0,0,0,1.75,1.75H72.167a1.75,1.75,0,0,0,1.75-1.75V114.689a51.927,51.927,0,0,0,18.923-7.824l8.267,8.265a1.749,1.749,0,0,0,2.475,0l11.549-11.549a1.749,1.749,0,0,0,0-2.475l-9.273-9.274a1.75,1.75,0,0,0-2.475,2.475l8.036,8.037-9.074,9.074-8.062-8.061a1.75,1.75,0,0,0-2.255-.187A48.345,48.345,0,0,1,71.884,111.5a1.75,1.75,0,0,0-1.467,1.727V124.5H57.583V113.226a1.749,1.749,0,0,0-1.466-1.727,48.356,48.356,0,0,1-20.146-8.328,1.749,1.749,0,0,0-2.254.187l-8.061,8.061-9.074-9.074,8.036-8.037a1.749,1.749,0,0,0,.183-2.26,48.339,48.339,0,0,1-8.417-20.169,1.75,1.75,0,0,0-1.726-1.461H3.5V57.583H14.607a1.75,1.75,0,0,0,1.728-1.472A48.321,48.321,0,0,1,24.687,35.83a1.75,1.75,0,0,0-.187-2.255l-7.918-7.919,9.074-9.074,7.895,7.895a1.752,1.752,0,0,0,2.26.183,48.316,48.316,0,0,1,20.306-8.442,1.749,1.749,0,0,0,1.466-1.727V3.5H70.417V14.49a1.75,1.75,0,0,0,1.467,1.727,48.318,48.318,0,0,1,20.3,8.442,1.751,1.751,0,0,0,2.261-.183l7.895-7.895,9.074,9.074L103.5,33.575a1.75,1.75,0,0,0-.187,2.255,48.312,48.312,0,0,1,8.352,20.281,1.749,1.749,0,0,0,1.728,1.472H124.5V70.417H113.342a1.75,1.75,0,1,0,0,3.5H126.25a1.75,1.75,0,0,0,1.75-1.75V55.833A1.75,1.75,0,0,0,126.25,54.083Zm-45.4,8.352L53.413,48.716a1.75,1.75,0,0,0-1.565,3.131L76.154,64,54.38,74.887V63.25a1.75,1.75,0,0,0-3.5,0V77.719a1.75,1.75,0,0,0,2.533,1.565L80.85,65.565a1.75,1.75,0,0,0,0-3.131ZM91.432,36.9a38.5,38.5,0,0,1,0,54.2,1.184,1.184,0,0,1-.334.334,38.5,38.5,0,0,1-54.2,0,1.163,1.163,0,0,1-.328-.328,38.5,38.5,0,0,1,0-54.2,1.163,1.163,0,0,1,.328-.328,38.5,38.5,0,0,1,54.2,0,1.182,1.182,0,0,1,.333.333ZM99.039,65.75H92.726A28.66,28.66,0,0,1,85.54,83.065L90,87.527A34.946,34.946,0,0,0,99.039,65.75ZM38,87.527l4.462-4.462A28.66,28.66,0,0,1,35.274,65.75H28.961A34.946,34.946,0,0,0,38,87.527ZM28.961,62.25h6.313a28.66,28.66,0,0,1,7.186-17.315L38,40.473A34.946,34.946,0,0,0,28.961,62.25ZM89.284,64A25.284,25.284,0,1,0,64,89.284,25.313,25.313,0,0,0,89.284,64ZM87.527,38A34.946,34.946,0,0,0,65.75,28.961v6.313A28.66,28.66,0,0,1,83.065,42.46ZM62.25,28.961A34.946,34.946,0,0,0,40.473,38l4.462,4.462A28.66,28.66,0,0,1,62.25,35.274ZM40.473,90A34.946,34.946,0,0,0,62.25,99.039V92.726a28.66,28.66,0,0,1-17.315-7.187ZM65.75,99.039A34.946,34.946,0,0,0,87.527,90L83.065,85.54A28.66,28.66,0,0,1,65.75,92.726ZM99.039,62.25A34.946,34.946,0,0,0,90,40.473L85.54,44.935A28.66,28.66,0,0,1,92.726,62.25Z" style="fill:url(#linear-gradient)"/></svg>
